<?xml version="1.0" encoding="utf-8"?>
<svg width="35px" height="24px"  xmlns="http://www.w3.org/2000/svg" viewBox="0 0 37.11 24.36">
<defs><style>.cls-1{fill:#5d5d5d;}.cls-2{fill:#fff;}.cls-3{fill:#2b2c6a;}</style></defs>
<g id="Layer_2" data-name="Layer 2">
<g id="Layer_1-2" data-name="Layer 1">
<rect class="cls-1" width="37.11" height="24.36"/>
<rect class="cls-2" x="1.36" y="1.28" width="34.38" height="21.79" rx="1.26"/>
<g id="g4158"><polygon id="polygon9" class="cls-3" points="15.92 16.77 13.55 16.77 15.03 7.62 17.4 7.62 15.92 16.77"/>
<path id="path11" class="cls-3" d="M24.5,7.84a5.75,5.75,0,0,0-2.12-.39c-2.34,0-4,1.25-4,3,0,1.31,1.18,2,2.08,2.48s1.22.74,1.22,1.14c0,.62-.74.9-1.42.9A4.74,4.74,0,0,1,18,14.51l-.31-.15-.33,2.06a7.25,7.25,0,0,0,2.64.49c2.48,0,4.1-1.23,4.12-3.13,0-1-.63-1.84-2-2.49-.83-.42-1.33-.7-1.33-1.13s.42-.79,1.36-.79A3.94,3.94,0,0,1,24,9.72l.22.1.32-2Z"/>
<path id="path13" class="cls-3" d="M27.64,13.53,28.59,11l.31-.88.17.79s.44,2.19.54,2.65Zm2.93-5.91H28.73a1.15,1.15,0,0,0-1.23.76L24,16.77h2.49s.4-1.13.49-1.37h3c.07.32.28,1.37.28,1.37h2.2L30.57,7.62Z"/>
<path id="path15" class="cls-3" d="M11.57,7.62,9.26,13.86,9,12.59A7,7,0,0,0,5.73,8.76l2.12,8h2.51l3.72-9.14Z"/>
<path id="path17" class="cls-3" d="M7.1,7.62H3.29l0,.18A7.91,7.91,0,0,1,9,12.59l-.83-4.2C8,7.8,7.62,7.64,7.1,7.62Z"/></g></g></g></svg>